M48
; DRILL file {KiCad (7.0.0)} date Sun Nov  5 01:23:12 2023
; FORMAT={-:-/ absolute / inch / decimal}
; #@! TF.CreationDate,2023-11-05T01:23:12-04:00
; #@! TF.GenerationSoftware,Kicad,Pcbnew,(7.0.0)
; #@! TF.FileFunction,Plated,1,2,PTH
FMAT,2
INCH
; #@! TA.AperFunction,Plated,PTH,ComponentDrill
T1C0.0354
; #@! TA.AperFunction,Plated,PTH,ComponentDrill
T2C0.0394
; #@! TA.AperFunction,Plated,PTH,ComponentDrill
T3C0.0402
%
G90
G05
T1
X3.6762Y-3.9498
X3.6762Y-4.0498
T2
X4.0504Y-3.4
X4.3496Y-3.4
T3
X3.8Y-2.65
X3.8Y-2.75
X3.8Y-2.85
X3.8Y-2.95
X4.75Y-1.75
X4.75Y-1.85
X4.75Y-1.95
X4.75Y-2.05
X4.75Y-2.15
X4.75Y-2.25
X4.75Y-2.35
X4.75Y-2.45
X4.75Y-2.55
X4.75Y-2.65
X4.75Y-2.75
X4.75Y-2.85
X4.75Y-2.95
X4.75Y-3.05
X4.75Y-3.15
X4.75Y-3.25
X4.75Y-3.35
X4.75Y-3.45
X4.75Y-3.55
X4.75Y-3.65
X5.0Y-3.6409
X5.1Y-3.6409
X5.2Y-3.6409
X5.45Y-1.75
X5.45Y-1.85
X5.45Y-1.95
X5.45Y-2.05
X5.45Y-2.15
X5.45Y-2.25
X5.45Y-2.35
X5.45Y-2.45
X5.45Y-2.55
X5.45Y-2.65
X5.45Y-2.75
X5.45Y-2.85
X5.45Y-2.95
X5.45Y-3.05
X5.45Y-3.15
X5.45Y-3.25
X5.45Y-3.35
X5.45Y-3.45
X5.45Y-3.55
X5.45Y-3.65
T0
M30
