%TF.GenerationSoftware,KiCad,Pcbnew,(7.0.0)*%
%TF.CreationDate,2023-11-05T01:23:08-04:00*%
%TF.ProjectId,Ultrasonic_ruler,556c7472-6173-46f6-9e69-635f72756c65,rev?*%
%TF.SameCoordinates,Original*%
%TF.FileFunction,Soldermask,Top*%
%TF.FilePolarity,Negative*%
%FSLAX46Y46*%
G04 Gerber Fmt 4.6, Leading zero omitted, Abs format (unit mm)*
G04 Created by KiCad (PCBNEW (7.0.0)) date 2023-11-05 01:23:08*
%MOMM*%
%LPD*%
G01*
G04 APERTURE LIST*
%ADD10C,1.530000*%
%ADD11R,2.000000X2.000000*%
%ADD12C,2.000000*%
%ADD13R,1.800000X1.800000*%
%ADD14C,1.800000*%
%ADD15O,1.800000X1.800000*%
%ADD16O,1.500000X1.500000*%
%ADD17O,1.700000X1.700000*%
%ADD18R,3.500000X1.700000*%
%ADD19R,1.700000X1.700000*%
%ADD20R,1.700000X3.500000*%
G04 APERTURE END LIST*
D10*
%TO.C,US SENSOR*%
X96520000Y-67310000D03*
X96520000Y-69850000D03*
X96520000Y-72390000D03*
X96520000Y-74930000D03*
%TD*%
D11*
%TO.C,BUZZER*%
X110479999Y-86359999D03*
D12*
X102880000Y-86360000D03*
%TD*%
D13*
%TO.C,LED*%
X93374999Y-100324999D03*
D14*
X93375000Y-102865000D03*
%TD*%
D15*
%TO.C,RP PICO*%
X126814999Y-44579999D03*
D16*
X127114999Y-47609999D03*
X131964999Y-47609999D03*
D15*
X132264999Y-44579999D03*
D17*
X120649999Y-44449999D03*
D18*
X119749999Y-44449999D03*
D17*
X120649999Y-46989999D03*
D18*
X119749999Y-46989999D03*
D19*
X120649999Y-49529999D03*
D18*
X119749999Y-49529999D03*
D17*
X120649999Y-52069999D03*
D18*
X119749999Y-52069999D03*
D17*
X120649999Y-54609999D03*
D18*
X119749999Y-54609999D03*
D17*
X120649999Y-57149999D03*
D18*
X119749999Y-57149999D03*
D17*
X120649999Y-59689999D03*
D18*
X119749999Y-59689999D03*
D19*
X120649999Y-62229999D03*
D18*
X119749999Y-62229999D03*
D17*
X120649999Y-64769999D03*
D18*
X119749999Y-64769999D03*
D17*
X120649999Y-67309999D03*
D18*
X119749999Y-67309999D03*
D17*
X120649999Y-69849999D03*
D18*
X119749999Y-69849999D03*
D17*
X120649999Y-72389999D03*
D18*
X119749999Y-72389999D03*
D19*
X120649999Y-74929999D03*
D18*
X119749999Y-74929999D03*
D17*
X120649999Y-77469999D03*
D18*
X119749999Y-77469999D03*
D17*
X120649999Y-80009999D03*
D18*
X119749999Y-80009999D03*
D17*
X120649999Y-82549999D03*
D18*
X119749999Y-82549999D03*
D17*
X120649999Y-85089999D03*
D18*
X119749999Y-85089999D03*
D19*
X120649999Y-87629999D03*
D18*
X119749999Y-87629999D03*
D17*
X120649999Y-90169999D03*
D18*
X119749999Y-90169999D03*
D17*
X120649999Y-92709999D03*
D18*
X119749999Y-92709999D03*
D17*
X138429999Y-92709999D03*
D18*
X139329999Y-92709999D03*
D17*
X138429999Y-90169999D03*
D18*
X139329999Y-90169999D03*
D19*
X138429999Y-87629999D03*
D18*
X139329999Y-87629999D03*
D17*
X138429999Y-85089999D03*
D18*
X139329999Y-85089999D03*
D17*
X138429999Y-82549999D03*
D18*
X139329999Y-82549999D03*
D17*
X138429999Y-80009999D03*
D18*
X139329999Y-80009999D03*
D17*
X138429999Y-77469999D03*
D18*
X139329999Y-77469999D03*
D19*
X138429999Y-74929999D03*
D18*
X139329999Y-74929999D03*
D17*
X138429999Y-72389999D03*
D18*
X139329999Y-72389999D03*
D17*
X138429999Y-69849999D03*
D18*
X139329999Y-69849999D03*
D17*
X138429999Y-67309999D03*
D18*
X139329999Y-67309999D03*
D17*
X138429999Y-64769999D03*
D18*
X139329999Y-64769999D03*
D19*
X138429999Y-62229999D03*
D18*
X139329999Y-62229999D03*
D17*
X138429999Y-59689999D03*
D18*
X139329999Y-59689999D03*
D17*
X138429999Y-57149999D03*
D18*
X139329999Y-57149999D03*
D17*
X138429999Y-54609999D03*
D18*
X139329999Y-54609999D03*
D17*
X138429999Y-52069999D03*
D18*
X139329999Y-52069999D03*
D19*
X138429999Y-49529999D03*
D18*
X139329999Y-49529999D03*
D17*
X138429999Y-46989999D03*
D18*
X139329999Y-46989999D03*
D17*
X138429999Y-44449999D03*
D18*
X139329999Y-44449999D03*
D17*
X126999999Y-92479999D03*
D20*
X126999999Y-93379999D03*
D19*
X129539999Y-92479999D03*
D20*
X129539999Y-93379999D03*
D17*
X132079999Y-92479999D03*
D20*
X132079999Y-93379999D03*
%TD*%
M02*
